<svg xmlns="http://www.w3.org/2000/svg" width="90" height="90" viewBox="0 0 90 90" fill="none"><path fill-rule="evenodd" clip-rule="evenodd" d="M45 90C69.853 90 90 69.853 90 45S69.853 0 45 0 0 20.147 0 45s20.147 45 45 45Z" fill="url(#a)"/><path fill-rule="evenodd" clip-rule="evenodd" d="M18 81c7.515 5.647 16.875 9 27 9s19.485-3.353 27-9H18Z" fill="#FF2D55"/><path fill-rule="evenodd" clip-rule="evenodd" d="M9 72a45.1 45.1 0 009 9h54a45.1 45.1 0 009-9H9Z" fill="#FFA25A"/><path fill-rule="evenodd" clip-rule="evenodd" d="M60.368 63H3.758A45.2 45.2 0 009 72h51.39V63h-.022Z" fill="#FFC95B"/><path fill-rule="evenodd" clip-rule="evenodd" d="M31.883 29.25V63h28.124L31.883 29.25Z" fill="url(#b)"/><path fill-rule="evenodd" clip-rule="evenodd" d="M3.758 63h28.125V29.25L3.758 63Z" fill="white"/><path fill-rule="evenodd" clip-rule="evenodd" d="M60.368 47.25V72H81L60.368 47.25Z" fill="url(#c)"/><path fill-rule="evenodd" clip-rule="evenodd" d="M39.757 72h20.61V47.25L39.758 72Z" fill="white"/><path fill-rule="evenodd" clip-rule="evenodd" d="M60.368 40.5a11.25 11.25 0 100-22.5 11.25 11.25 0 000 22.5Z" fill="#FFC95B"/><path fill-rule="evenodd" clip-rule="evenodd" d="M31.882 22.5a5.625 5.625 0 100-11.25 5.625 5.625 0 000 11.25Z" fill="#FFC95B"/><defs><linearGradient id="a" x1="45" y1="-18.64" x2="-18.64" y2="45" gradientUnits="userSpaceOnUse"><stop stop-color="#FF2D55"/><stop offset="1" stop-color="#FFBC5B"/></linearGradient><linearGradient id="b" x1="31.873" y1="29.25" x2="31.873" y2="63" gradientUnits="userSpaceOnUse"><stop stop-color="#A524B3"/><stop offset="1" stop-color="#FF2D55"/></linearGradient><linearGradient id="c" x1="60.36" y1="47.25" x2="60.36" y2="72" gradientUnits="userSpaceOnUse"><stop stop-color="#A524B3"/><stop offset="1" stop-color="#FF2D55"/></linearGradient></defs></svg>
