<svg xmlns="http://www.w3.org/2000/svg" width="48" height="48" viewBox="0 0 48 48" fill="none">
<path d="M23.9535 46.5C27.6473 46.5 31.1733 45.6667 34.2795 44.0834H13.6274C16.7336 45.6667 20.1756 46.5 23.9535 46.5Z" fill="#FCFCFC"/>
<path d="M23.9535 1.5C11.5287 1.5 1.37054 11.5 1.37054 23.9167C1.37054 26.6667 1.87425 29.3333 2.79772 31.75L11.5287 21.3333L16.5657 15.25L28.8226 29.9167L32.3486 25.6667L41.5833 36.6667H42.3388C44.9413 33 46.3685 28.5833 46.3685 23.8333C46.5364 11.5 36.3783 1.5 23.9535 1.5ZM16.4818 13.25C14.7188 13.25 13.3756 11.8333 13.3756 10.1667C13.3756 8.5 14.8028 7.08333 16.4818 7.08333C18.2448 7.08333 19.588 8.5 19.588 10.1667C19.588 11.8333 18.2448 13.25 16.4818 13.25ZM32.8523 23.3333C29.4103 23.3333 26.6399 20.5833 26.6399 17.1667C26.6399 13.75 29.4103 11 32.8523 11C36.2943 11 39.0647 13.75 39.0647 17.1667C39.1487 20.5833 36.2943 23.3333 32.8523 23.3333Z" fill="#FCFCFC"/>
<path d="M9.76567 41.6666H37.8894C38.8129 40.9166 39.8203 39.9999 40.4079 39.3333H7.24713C8.08665 40.1666 8.92616 40.9999 9.76567 41.6666Z" fill="#FCFCFC"/>
<path d="M25.3806 34.0834H3.55328C4.05699 35.0834 4.64465 36 5.23231 36.9167H22.9461L25.3806 34.0834Z" fill="#FCFCFC"/>
<path d="M17.1534 19.4166V31.8333H27.4795L17.1534 19.4166Z" fill="#FCFCFC"/>
<path d="M33.1042 37.0833H38.9808L33.1042 30V37.0833Z" fill="#FCFCFC"/>
</svg>
