<svg width="315" height="59" viewBox="0 0 315 59" fill="none" xmlns="http://www.w3.org/2000/svg">
<path fill-rule="evenodd" clip-rule="evenodd" d="M29.5 59C45.7924 59 59 45.7924 59 29.5C59 13.2076 45.7924 0 29.5 0C13.2076 0 0 13.2076 0 29.5C0 45.7924 13.2076 59 29.5 59Z" fill="url(#paint0_linear_500_18683)"/>
<path fill-rule="evenodd" clip-rule="evenodd" d="M11.8 53.0996C16.7265 56.8019 22.8625 58.9996 29.5 58.9996C36.1375 58.9996 42.2735 56.8019 47.2 53.0996H11.8Z" fill="#FF2D55"/>
<path fill-rule="evenodd" clip-rule="evenodd" d="M5.90002 47.1997C7.58152 49.427 9.57277 51.4182 11.8 53.0997H47.2C49.4273 51.4182 51.4185 49.427 53.1 47.1997H5.90002Z" fill="#FFA25A"/>
<path fill-rule="evenodd" clip-rule="evenodd" d="M39.5743 41.2998H2.46326C3.37776 43.4091 4.54301 45.3856 5.90001 47.1998H39.589V41.2998H39.5743Z" fill="#FFC95B"/>
<path fill-rule="evenodd" clip-rule="evenodd" d="M20.9008 19.1748V41.2998H39.3383L20.9008 19.1748Z" fill="url(#paint1_linear_500_18683)"/>
<path fill-rule="evenodd" clip-rule="evenodd" d="M2.46326 41.2998H20.9008V19.1748L2.46326 41.2998Z" fill="white"/>
<path fill-rule="evenodd" clip-rule="evenodd" d="M39.5742 30.9751V47.2001H53.1L39.5742 30.9751Z" fill="url(#paint2_linear_500_18683)"/>
<path fill-rule="evenodd" clip-rule="evenodd" d="M26.0632 47.2001H39.5742V30.9751L26.0632 47.2001Z" fill="white"/>
<path fill-rule="evenodd" clip-rule="evenodd" d="M39.5743 26.5498C43.6474 26.5498 46.9493 23.2479 46.9493 19.1748C46.9493 15.1017 43.6474 11.7998 39.5743 11.7998C35.5012 11.7998 32.1993 15.1017 32.1993 19.1748C32.1993 23.2479 35.5012 26.5498 39.5743 26.5498Z" fill="#FFC95B"/>
<path fill-rule="evenodd" clip-rule="evenodd" d="M20.9008 14.75C22.9373 14.75 24.5883 13.0991 24.5883 11.0625C24.5883 9.02595 22.9373 7.375 20.9008 7.375C18.8642 7.375 17.2133 9.02595 17.2133 11.0625C17.2133 13.0991 18.8642 14.75 20.9008 14.75Z" fill="#FFC95B"/>
<path d="M74.7333 16.4072V44.2115H85.3882C93.6859 44.2115 98.5726 39.0283 98.5726 30.2034C98.5726 21.3784 93.6859 16.4072 85.3882 16.4072H74.7333ZM80.5207 21.205H84.6983C89.7958 21.205 92.6703 24.4036 92.6703 30.2226C92.6703 36.2344 89.8724 39.3944 84.6983 39.3944H80.5207V21.205Z" fill="white"/>
<path d="M111.052 26.8314C113.639 26.8314 115.44 28.6426 115.536 31.4173H106.433C106.625 28.7004 108.503 26.8314 111.052 26.8314ZM115.613 37.7373C115.076 39.3752 113.409 40.3771 111.301 40.3771C108.35 40.3771 106.376 38.3154 106.376 35.2517V34.9049H120.94V33.1707C120.94 26.7158 117.069 22.6309 110.994 22.6309C104.805 22.6309 100.857 26.947 100.857 33.691C100.857 40.4349 104.785 44.5776 111.205 44.5776C116.341 44.5776 120.154 41.8415 120.768 37.7373H115.613Z" fill="white"/>
<path d="M142.771 30.82C142.503 26.0992 138.881 22.6309 133.208 22.6309C126.942 22.6309 122.918 26.8699 122.918 33.5946C122.918 40.4156 126.942 44.5776 133.247 44.5776C138.785 44.5776 142.464 41.4369 142.79 36.5042H137.578C137.214 38.8356 135.661 40.1266 133.304 40.1266C130.411 40.1266 128.59 37.7373 128.59 33.5946C128.59 29.529 130.411 27.0626 133.285 27.0626C135.719 27.0626 137.252 28.6234 137.559 30.82H142.771Z" fill="white"/>
<path d="M154.752 26.8314C157.339 26.8314 159.14 28.6426 159.236 31.4173H150.134C150.325 28.7004 152.203 26.8314 154.752 26.8314ZM159.313 37.7373C158.776 39.3752 157.109 40.3771 155.001 40.3771C152.05 40.3771 150.076 38.3154 150.076 35.2517V34.9049H164.64V33.1707C164.64 26.7158 160.769 22.6309 154.694 22.6309C148.505 22.6309 144.557 26.947 144.557 33.691C144.557 40.4349 148.486 44.5776 154.905 44.5776C160.041 44.5776 163.855 41.8415 164.468 37.7373H159.313Z" fill="white"/>
<path d="M167.404 44.2115H172.999V32.1109C172.999 29.2978 174.609 27.3709 177.292 27.3709C179.936 27.3709 181.24 28.9702 181.24 31.7834V44.2115H186.835V30.608C186.835 25.656 184.191 22.6887 179.515 22.6887C176.276 22.6887 174.13 24.1145 172.923 26.7929H172.808V22.997H167.404V44.2115Z" fill="white"/>
<path d="M191.802 18.2762V22.997H188.947V27.2553H191.802V38.4888C191.802 42.6315 193.719 44.2886 198.605 44.2886C199.736 44.2886 200.733 44.173 201.307 44.0574V39.8954C200.962 39.9532 200.407 39.9917 199.909 39.9917C198.203 39.9917 197.398 39.2017 197.398 37.5639V27.2553H201.307V22.997H197.398V18.2762H191.802Z" fill="white"/>
<path d="M204.282 44.2115H209.877V32.3422C209.877 29.3748 211.545 27.6021 214.381 27.6021C215.205 27.6021 215.971 27.737 216.45 27.9297V22.9584C216.048 22.8236 215.473 22.7465 214.821 22.7465C212.33 22.7465 210.51 24.1723 209.801 26.7929H209.686V22.997H204.282V44.2115Z" fill="white"/>
<path d="M226.17 40.3578C224.139 40.3578 222.816 39.3752 222.816 37.8144C222.816 36.2537 224.062 35.3288 226.4 35.1746L230.827 34.8663V36.4271C230.827 38.7393 228.757 40.3578 226.17 40.3578ZM224.349 44.462C227.052 44.462 229.658 43.1518 230.808 40.9359H230.923V44.2115H236.327V29.6639C236.327 25.4248 232.781 22.6309 227.358 22.6309C222.088 22.6309 218.447 25.4248 218.294 29.4712H223.41C223.679 27.9297 225.097 26.8507 227.128 26.8507C229.428 26.8507 230.827 27.9682 230.827 30.0107V31.4173L225.557 31.7448C220.172 32.0724 217.24 34.2497 217.24 38.1034C217.24 41.8993 220.287 44.462 224.349 44.462Z" fill="white"/>
<path d="M240.01 44.2115H245.605V15.0776H240.01V44.2115Z" fill="white"/>
<path d="M257.376 40.3578C255.344 40.3578 254.022 39.3752 254.022 37.8144C254.022 36.2537 255.268 35.3288 257.606 35.1746L262.032 34.8663V36.4271C262.032 38.7393 259.963 40.3578 257.376 40.3578ZM255.555 44.462C258.257 44.462 260.863 43.1518 262.013 40.9359H262.128V44.2115H267.532V29.6639C267.532 25.4248 263.987 22.6309 258.564 22.6309C253.294 22.6309 249.653 25.4248 249.499 29.4712H254.616C254.884 27.9297 256.303 26.8507 258.334 26.8507C260.633 26.8507 262.032 27.9682 262.032 30.0107V31.4173L256.762 31.7448C251.378 32.0724 248.446 34.2497 248.446 38.1034C248.446 41.8993 251.492 44.462 255.555 44.462Z" fill="white"/>
<path d="M271.062 44.2115H276.658V32.1109C276.658 29.2978 278.268 27.3709 280.95 27.3709C283.595 27.3709 284.898 28.9702 284.898 31.7834V44.2115H290.494V30.608C290.494 25.656 287.849 22.6887 283.173 22.6887C279.935 22.6887 277.788 24.1145 276.581 26.7929H276.466V22.997H271.062V44.2115Z" fill="white"/>
<path d="M301.823 44.462C304.928 44.462 307.361 42.9205 308.396 40.5891H308.492V44.2115H314.011V15.0776H308.415V26.6194H308.3C307.246 24.2687 304.889 22.7465 301.842 22.7465C296.592 22.7465 293.181 26.9277 293.181 33.5753C293.181 40.2615 296.572 44.462 301.823 44.462ZM303.682 27.2938C306.576 27.2938 308.454 29.7795 308.454 33.6139C308.454 37.4483 306.576 39.9147 303.682 39.9147C300.769 39.9147 298.91 37.4868 298.91 33.5946C298.91 29.7409 300.769 27.2938 303.682 27.2938Z" fill="white"/>
<defs>
<linearGradient id="paint0_linear_500_18683" x1="29.5" y1="-12.2193" x2="-12.2193" y2="29.5" gradientUnits="userSpaceOnUse">
<stop stop-color="#FF2D55"/>
<stop offset="1" stop-color="#FFBC5B"/>
</linearGradient>
<linearGradient id="paint1_linear_500_18683" x1="20.8946" y1="19.1748" x2="20.8946" y2="41.2998" gradientUnits="userSpaceOnUse">
<stop stop-color="#A524B3"/>
<stop offset="1" stop-color="#FF2D55"/>
</linearGradient>
<linearGradient id="paint2_linear_500_18683" x1="39.5697" y1="30.9751" x2="39.5697" y2="47.2001" gradientUnits="userSpaceOnUse">
<stop stop-color="#A524B3"/>
<stop offset="1" stop-color="#FF2D55"/>
</linearGradient>
</defs>
</svg>
