<svg width="240" height="30" viewBox="0 0 240 30" fill="none" xmlns="http://www.w3.org/2000/svg">
<path d="M0 1.32952V29.1339H10.6548C18.9526 29.1339 23.8392 23.9507 23.8392 15.1257C23.8392 6.30078 18.9526 1.32952 10.6548 1.32952H0ZM5.78734 6.12737H9.96496C15.0624 6.12737 17.9369 9.32593 17.9369 15.145C17.9369 21.1568 15.1391 24.3168 9.96496 24.3168H5.78734V6.12737Z" fill="white"/>
<path d="M36.3184 11.7538C38.9055 11.7538 40.7068 13.565 40.8027 16.3396H31.7001C31.8917 13.6228 33.7697 11.7538 36.3184 11.7538ZM40.8793 22.6597C40.3427 24.2975 38.6755 25.2995 36.5676 25.2995C33.6164 25.2995 31.6426 23.2378 31.6426 20.1741V19.8272H46.2067V18.0931C46.2067 11.6381 42.3357 7.55323 36.2609 7.55323C30.0712 7.55323 26.1235 11.8694 26.1235 18.6133C26.1235 25.3573 30.052 29.5 36.4717 29.5C41.6075 29.5 45.421 26.7639 46.0343 22.6597H40.8793Z" fill="white"/>
<path d="M68.0377 15.7423C67.7694 11.0216 64.1475 7.55323 58.4751 7.55323C52.2087 7.55323 48.1844 11.7923 48.1844 18.517C48.1844 25.338 52.2087 29.5 58.5135 29.5C64.0517 29.5 67.731 26.3592 68.0568 21.4265H62.8444C62.4803 23.758 60.928 25.049 58.5709 25.049C55.6773 25.049 53.8568 22.6597 53.8568 18.517C53.8568 14.4513 55.6773 11.985 58.5518 11.985C60.9855 11.985 62.5186 13.5457 62.8252 15.7423H68.0377Z" fill="white"/>
<path d="M80.0186 11.7538C82.6057 11.7538 84.407 13.565 84.5028 16.3396H75.4002C75.5919 13.6228 77.4699 11.7538 80.0186 11.7538ZM84.5795 22.6597C84.0429 24.2975 82.3757 25.2995 80.2677 25.2995C77.3166 25.2995 75.3427 23.2378 75.3427 20.1741V19.8272H89.9069V18.0931C89.9069 11.6381 86.0359 7.55323 79.9611 7.55323C73.7713 7.55323 69.8237 11.8694 69.8237 18.6133C69.8237 25.3573 73.7522 29.5 80.1719 29.5C85.3077 29.5 89.1212 26.7639 89.7344 22.6597H84.5795Z" fill="white"/>
<path d="M92.6703 29.1339H98.266V17.0333C98.266 14.2201 99.8757 12.2933 102.559 12.2933C105.203 12.2933 106.506 13.8926 106.506 16.7057V29.1339H112.102V15.5304C112.102 10.5784 109.457 7.61104 104.782 7.61104C101.543 7.61104 99.3966 9.0369 98.1893 11.7152H98.0743V7.91933H92.6703V29.1339Z" fill="white"/>
<path d="M117.069 3.19856V7.91933H114.214V12.1777H117.069V23.4112C117.069 27.5539 118.985 29.211 123.872 29.211C125.003 29.211 125.999 29.0954 126.574 28.9798V24.8178C126.229 24.8756 125.673 24.9141 125.175 24.9141C123.47 24.9141 122.665 24.1241 122.665 22.4863V12.1777H126.574V7.91933H122.665V3.19856H117.069Z" fill="white"/>
<path d="M129.548 29.1339H135.144V17.2645C135.144 14.2972 136.811 12.5245 139.647 12.5245C140.471 12.5245 141.238 12.6594 141.717 12.8521V7.8808C141.315 7.74592 140.74 7.66884 140.088 7.66884C137.597 7.66884 135.776 9.09471 135.067 11.7152H134.952V7.91933H129.548V29.1339Z" fill="white"/>
<path d="M151.437 25.2802C149.405 25.2802 148.083 24.2975 148.083 22.7368C148.083 21.176 149.329 20.2511 151.667 20.097L156.093 19.7887V21.3494C156.093 23.6617 154.024 25.2802 151.437 25.2802ZM149.616 29.3844C152.318 29.3844 154.924 28.0741 156.074 25.8583H156.189V29.1339H161.593V14.5862C161.593 10.3472 158.048 7.55323 152.625 7.55323C147.355 7.55323 143.714 10.3472 143.561 14.3935H148.677C148.945 12.8521 150.364 11.773 152.395 11.773C154.694 11.773 156.093 12.8906 156.093 14.933V16.3396L150.823 16.6672C145.439 16.9948 142.507 19.1721 142.507 23.0258C142.507 26.8217 145.554 29.3844 149.616 29.3844Z" fill="white"/>
<path d="M165.276 29.1339H170.872V0H165.276V29.1339Z" fill="white"/>
<path d="M182.642 25.2802C180.611 25.2802 179.289 24.2975 179.289 22.7368C179.289 21.176 180.534 20.2511 182.872 20.097L187.299 19.7887V21.3494C187.299 23.6617 185.229 25.2802 182.642 25.2802ZM180.822 29.3844C183.524 29.3844 186.13 28.0741 187.28 25.8583H187.395V29.1339H192.799V14.5862C192.799 10.3472 189.254 7.55323 183.83 7.55323C178.561 7.55323 174.919 10.3472 174.766 14.3935H179.883C180.151 12.8521 181.569 11.773 183.6 11.773C185.9 11.773 187.299 12.8906 187.299 14.933V16.3396L182.029 16.6672C176.644 16.9948 173.712 19.1721 173.712 23.0258C173.712 26.8217 176.759 29.3844 180.822 29.3844Z" fill="white"/>
<path d="M196.329 29.1339H201.925V17.0333C201.925 14.2201 203.534 12.2933 206.217 12.2933C208.862 12.2933 210.165 13.8926 210.165 16.7057V29.1339H215.76V15.5304C215.76 10.5784 213.116 7.61104 208.44 7.61104C205.201 7.61104 203.055 9.0369 201.848 11.7152H201.733V7.91933H196.329V29.1339Z" fill="white"/>
<path d="M227.09 29.3844C230.194 29.3844 232.628 27.8429 233.663 25.5114H233.759V29.1339H239.278V0H233.682V11.5418H233.567C232.513 9.19105 230.156 7.66884 227.109 7.66884C221.858 7.66884 218.447 11.8501 218.447 18.4977C218.447 25.1839 221.839 29.3844 227.09 29.3844ZM228.949 12.2162C231.842 12.2162 233.72 14.7018 233.72 18.5362C233.72 22.3707 231.842 24.837 228.949 24.837C226.036 24.837 224.177 22.4092 224.177 18.517C224.177 14.6633 226.036 12.2162 228.949 12.2162Z" fill="white"/>
</svg>
