<svg width="20" height="20" viewBox="0 0 20 20" fill="none" xmlns="http://www.w3.org/2000/svg">
<g clip-path="url(#clip0_1099_6345)">
<path fill-rule="evenodd" clip-rule="evenodd" d="M3.33325 0.833313C3.00173 0.833313 2.68379 0.965009 2.44937 1.19943C2.21495 1.43385 2.08325 1.75179 2.08325 2.08331V15.4166C2.08324 15.4973 2.10662 15.5762 2.15055 15.6438C2.19448 15.7113 2.25708 15.7647 2.33075 15.7975L9.83075 19.1308C9.88401 19.1545 9.94164 19.1667 9.99992 19.1667C10.0582 19.1667 10.1158 19.1545 10.1691 19.1308L17.6691 15.7975C17.7428 15.7647 17.8054 15.7113 17.8493 15.6438C17.8932 15.5762 17.9166 15.4973 17.9166 15.4166V2.08331C17.9166 1.91916 17.8843 1.75662 17.8214 1.60496C17.7586 1.4533 17.6665 1.3155 17.5505 1.19943C17.4344 1.08336 17.2966 0.991282 17.1449 0.928464C16.9933 0.865645 16.8307 0.833313 16.6666 0.833313H3.33325ZM11.8749 10.625H10.6249V3.54165H11.8749V10.625ZM6.66659 15.4166L9.99992 17.0833L13.3333 15.4166H6.66659ZM6.66659 3.54165H4.37492V10.625H6.66659V9.37498H5.62492V7.70831H6.66659V6.45831H5.62492V4.79165H6.66659V3.54165ZM8.74992 3.54165H7.29159V10.625H8.54159V8.54165H8.74992C9.13669 8.54165 9.50763 8.388 9.78112 8.11451C10.0546 7.84102 10.2083 7.47009 10.2083 7.08331V4.99998C10.2083 4.61321 10.0546 4.24227 9.78112 3.96878C9.50763 3.69529 9.13669 3.54165 8.74992 3.54165ZM8.74992 7.29165H8.54159V4.79165H8.74992C8.80517 4.79165 8.85816 4.8136 8.89723 4.85267C8.9363 4.89174 8.95825 4.94473 8.95825 4.99998V7.08331C8.95825 7.13857 8.9363 7.19156 8.89723 7.23063C8.85816 7.2697 8.80517 7.29165 8.74992 7.29165ZM12.2916 4.58331C12.2916 4.00831 12.7583 3.54165 13.3333 3.54165H14.5833C15.1583 3.54165 15.6249 4.00831 15.6249 4.58331V6.24998H14.3749V4.79165H13.5416V9.37498H14.3749V7.91665H15.6249V9.58331C15.6249 10.1583 15.1583 10.625 14.5833 10.625H13.3333C12.7583 10.625 12.2916 10.1583 12.2916 9.58331V4.58331ZM4.58325 13.5416H14.5833V12.2916H4.58325V13.5416Z" fill="#ECEBED"/>
</g>
<defs>
<clipPath id="clip0_1099_6345">
<rect width="20" height="20" fill="white"/>
</clipPath>
</defs>
</svg>
