<svg width="163" height="41" viewBox="0 0 163 41" fill="none" xmlns="http://www.w3.org/2000/svg">
<path d="M52.2785 6.65639C52.2785 7.82586 51.9308 8.76617 51.2355 9.46153C50.4453 10.2912 49.4181 10.7021 48.1538 10.7021C46.8895 10.7021 45.9097 10.2833 45.0642 9.44572C44.2187 8.60813 43.792 7.5651 43.792 6.31661C43.792 5.06813 44.2187 4.033 45.0642 3.1875C45.9097 2.34991 46.9448 1.92322 48.1538 1.92322C48.7543 1.92322 49.3311 2.04175 49.8764 2.2709C50.4216 2.50795 50.8641 2.81612 51.1881 3.21121L50.4532 3.95398C49.9001 3.29023 49.1336 2.95835 48.1538 2.95835C47.2688 2.95835 46.5023 3.26652 45.8623 3.89076C45.2222 4.51501 44.8982 5.32099 44.8982 6.30871C44.8982 7.29644 45.2222 8.11032 45.8623 8.72666C46.5102 9.3509 47.2688 9.65907 48.1538 9.65907C49.0941 9.65907 49.8764 9.343 50.5006 8.71876C50.9036 8.30787 51.1407 7.74684 51.2039 7.01987H48.1538V6.00844H52.2232C52.2627 6.22969 52.2785 6.43514 52.2785 6.64059V6.65639Z" fill="white" stroke="white" stroke-width="0.158036" stroke-miterlimit="10"/>
<path d="M58.7342 3.14802H54.9097V5.81093H58.3628V6.82236H54.9097V9.48526H58.7342V10.5204H53.8271V2.12079H58.7342V3.15592V3.14802Z" fill="white" stroke="white" stroke-width="0.158036" stroke-miterlimit="10"/>
<path d="M63.2858 10.5125H62.2033V3.14799H59.8564V2.11285H65.6248V3.14799H63.2779V10.5125H63.2858Z" fill="white" stroke="white" stroke-width="0.158036" stroke-miterlimit="10"/>
<path d="M69.8047 10.5125V2.11285H70.8793V10.5125H69.8047Z" fill="white" stroke="white" stroke-width="0.158036" stroke-miterlimit="10"/>
<path d="M75.676 10.5125H74.5934V3.14799H72.2466V2.11285H78.0149V3.14799H75.6681V10.5125H75.676Z" fill="white" stroke="white" stroke-width="0.158036" stroke-miterlimit="10"/>
<path d="M88.943 9.42995C88.1134 10.2833 87.094 10.7021 85.8613 10.7021C84.6287 10.7021 83.6093 10.2754 82.7796 9.42995C81.95 8.58446 81.5391 7.54142 81.5391 6.31665C81.5391 5.09187 81.95 4.04883 82.7796 3.20334C83.6014 2.34995 84.6287 1.93115 85.8613 1.93115C87.094 1.93115 88.1054 2.35785 88.9351 3.21124C89.7648 4.06464 90.1757 5.09977 90.1757 6.31665C90.1757 7.53352 89.7648 8.58446 88.9351 9.42995H88.943ZM83.5856 8.72669C84.2099 9.35884 84.9684 9.66701 85.8692 9.66701C86.7701 9.66701 87.5286 9.35094 88.1529 8.72669C88.7771 8.09455 89.0853 7.29647 89.0853 6.31665C89.0853 5.33682 88.7692 4.53084 88.1529 3.9066C87.5365 3.27446 86.7701 2.96629 85.8692 2.96629C84.9684 2.96629 84.2099 3.28236 83.5856 3.9066C82.9693 4.53874 82.6532 5.33682 82.6532 6.31665C82.6532 7.29647 82.9693 8.10245 83.5856 8.72669Z" fill="white" stroke="white" stroke-width="0.158036" stroke-miterlimit="10"/>
<path d="M91.7008 10.5125V2.11285H93.0125L97.0977 8.64764H97.1451L97.0977 7.02777V2.11285H98.1802V10.5125H97.0503L92.7754 3.66161H92.728L92.7754 5.28147V10.5125H91.6929H91.7008Z" fill="white" stroke="white" stroke-width="0.158036" stroke-miterlimit="10"/>
<path d="M81.286 22.7682C77.991 22.7682 75.3123 25.2731 75.3123 28.7182C75.3123 32.1634 77.9989 34.6683 81.286 34.6683C84.5732 34.6683 87.2598 32.1397 87.2598 28.7182C87.2598 25.2968 84.5732 22.7682 81.286 22.7682ZM81.286 32.3294C79.4844 32.3294 77.9278 30.8438 77.9278 28.7182C77.9278 26.5927 79.4844 25.1071 81.286 25.1071C83.0876 25.1071 84.6443 26.569 84.6443 28.7182C84.6443 30.8675 83.0876 32.3294 81.286 32.3294ZM68.2481 22.7682C64.953 22.7682 62.2743 25.2731 62.2743 28.7182C62.2743 32.1634 64.9609 34.6683 68.2481 34.6683C71.5352 34.6683 74.2218 32.1397 74.2218 28.7182C74.2218 25.2968 71.5352 22.7682 68.2481 22.7682ZM68.2481 32.3294C66.4465 32.3294 64.8898 30.8438 64.8898 28.7182C64.8898 26.5927 66.4465 25.1071 68.2481 25.1071C70.0497 25.1071 71.6063 26.569 71.6063 28.7182C71.6063 30.8675 70.0497 32.3294 68.2481 32.3294ZM52.7369 24.5935V27.1221H58.7817C58.6 28.5444 58.1259 29.5795 57.4068 30.3065C56.5297 31.1836 55.1548 32.1555 52.7369 32.1555C49.0151 32.1555 46.1072 29.1528 46.1072 25.4311C46.1072 21.7094 49.0151 18.7067 52.7369 18.7067C54.7439 18.7067 56.2136 19.4969 57.2883 20.5083L59.0741 18.7225C57.5648 17.2764 55.5578 16.1781 52.7369 16.1781C47.6402 16.1781 43.3574 20.3265 43.3574 25.4232C43.3574 30.5199 47.6402 34.6683 52.7369 34.6683C55.4867 34.6683 57.5648 33.7675 59.1847 32.0765C60.852 30.4092 61.3735 28.0624 61.3735 26.166C61.3735 25.5812 61.3261 25.036 61.2392 24.5856H52.7369V24.5935ZM116.165 26.5532C115.667 25.2257 114.157 22.7603 111.068 22.7603C107.978 22.7603 105.45 25.1703 105.45 28.7103C105.45 32.0449 107.978 34.6604 111.36 34.6604C114.086 34.6604 115.667 32.9931 116.323 32.0212L114.292 30.67C113.612 31.6656 112.688 32.3136 111.36 32.3136C110.033 32.3136 109.085 31.7051 108.476 30.512L116.441 27.2169L116.172 26.5374L116.165 26.5532ZM108.041 28.5365C107.97 26.2371 109.827 25.0597 111.155 25.0597C112.19 25.0597 113.075 25.5812 113.367 26.324L108.041 28.5365ZM101.57 34.3127H104.185V16.8102H101.57V34.3127ZM97.2871 24.0957H97.2002C96.6155 23.4003 95.4855 22.7682 94.0632 22.7682C91.0842 22.7682 88.3581 25.3837 88.3581 28.7419C88.3581 32.1002 91.0842 34.6762 94.0632 34.6762C95.4855 34.6762 96.6076 34.0441 97.2002 33.325H97.2871V34.1784C97.2871 36.4541 96.0703 37.671 94.1027 37.671C92.4987 37.671 91.5109 36.5173 91.1 35.5533L88.8243 36.5015C89.4802 38.0819 91.2186 40.0178 94.1027 40.0178C97.1686 40.0178 99.7604 38.2162 99.7604 33.8149V23.1238H97.2793V24.0957H97.2871ZM94.2845 32.3294C92.4829 32.3294 90.9657 30.8201 90.9657 28.7419C90.9657 26.6638 92.475 25.1071 94.2845 25.1071C96.094 25.1071 97.4689 26.6401 97.4689 28.7419C97.4689 30.8438 96.0703 32.3294 94.2845 32.3294ZM128.42 16.8102H122.162V34.3127H124.777V27.6831H128.428C131.32 27.6831 134.173 25.5891 134.173 22.2467C134.173 18.9042 131.328 16.8102 128.428 16.8102H128.42ZM128.483 25.2494H124.77V19.2519H128.483C130.435 19.2519 131.541 20.8718 131.541 22.2546C131.541 23.6374 130.435 25.2573 128.483 25.2573V25.2494ZM144.627 22.7366C142.738 22.7366 140.779 23.5663 139.965 25.4153L142.288 26.3872C142.786 25.4153 143.702 25.1071 144.674 25.1071C146.025 25.1071 147.4 25.921 147.424 27.3591V27.5409C146.95 27.2722 145.938 26.8613 144.698 26.8613C142.201 26.8613 139.657 28.2362 139.657 30.8043C139.657 33.1432 141.703 34.6525 144.003 34.6525C145.757 34.6525 146.729 33.8623 147.337 32.9457H147.424V34.2969H149.945V27.5883C149.945 24.4829 147.622 22.7445 144.627 22.7445V22.7366ZM144.319 32.3215C143.465 32.3215 142.272 31.8948 142.272 30.8359C142.272 29.4847 143.758 28.9632 145.038 28.9632C146.183 28.9632 146.729 29.2082 147.424 29.5479C147.219 31.1678 145.828 32.3136 144.319 32.3136V32.3215ZM159.127 23.1159L156.132 30.7016H156.045L152.939 23.1159H150.126L154.788 33.7201L152.133 39.6227H154.86L162.042 23.1159H159.134H159.127ZM135.603 34.3127H138.218V16.8102H135.603V34.3127Z" fill="white"/>
<path d="M0 5.87517C0.000139012 1.37273 4.86257 -1.45156 8.77344 0.779467L32.0537 14.0597C35.9993 16.3109 35.9992 21.9998 32.0537 24.2511L8.77344 37.5314C4.86264 39.7624 0.000314321 36.939 0 32.4367V5.87517ZM18.9004 23.9972C17.7231 22.8056 15.7982 22.8094 14.625 24.0051L5.16309 33.6486C4.92865 33.8875 4.6532 34.0413 4.36621 34.1213C5.04916 34.7252 6.08227 34.9111 6.98438 34.3967L21.1748 26.3L18.9004 23.9972ZM3.61035 30.1037L12.1611 21.3771C13.3072 20.2073 13.3031 18.3342 12.1523 17.1691L3.61035 8.52361V30.1037ZM21.3564 17.1447C20.2091 18.3144 20.2127 20.1881 21.3643 21.3537L24.1484 24.172C24.2394 24.2642 24.3177 24.3641 24.3848 24.4689L30.2637 21.1154C31.7814 20.2496 31.7814 18.0613 30.2637 17.1955L24.5215 13.9191L21.3564 17.1447ZM6.98438 3.91521C6.07162 3.3946 5.02441 3.59012 4.3418 4.21111C4.47152 4.28818 4.59406 4.38197 4.70508 4.49431L14.6123 14.5197C15.7902 15.7114 17.7159 15.7077 18.8887 14.5109L21.2793 12.0705L6.98438 3.91521Z" fill="white"/>
</svg>
