<svg width="21" height="22" viewBox="0 0 21 22" fill="none" xmlns="http://www.w3.org/2000/svg">
<path d="M0 3.35962C7.94869e-05 0.785135 2.78034 -0.829922 5.0166 0.445555L18.3291 8.04028C20.5848 9.32766 20.5849 12.5801 18.3291 13.8674L5.0166 21.4612C2.78035 22.7369 0.00020771 21.1226 0 18.5481V3.35962ZM10.8066 13.7229C10.1334 13.0416 9.03213 13.0431 8.36133 13.7268L2.95215 19.2405C2.81837 19.3768 2.66081 19.4632 2.49707 19.509C2.88763 19.855 3.47787 19.9627 3.99414 19.6682L12.1074 15.0393L10.8066 13.7229ZM2.06445 17.2131L6.95312 12.2239C7.60854 11.5549 7.60646 10.4838 6.94824 9.81763L2.06445 4.87329V17.2131ZM12.2119 9.80395C11.5555 10.4728 11.5571 11.5446 12.2158 12.2112L13.8076 13.8215C13.8598 13.8743 13.9039 13.9324 13.9424 13.9924L17.3057 12.0745C18.1734 11.5794 18.1733 10.3284 17.3057 9.83325L14.0205 7.95923L12.2119 9.80395ZM3.99414 2.23852C3.47209 1.94073 2.87374 2.05415 2.4834 2.40942C2.55705 2.45333 2.62735 2.50577 2.69043 2.56958L8.35449 8.30395C9.02796 8.98553 10.1291 8.98242 10.7998 8.29809L12.168 6.90161L3.99414 2.23852Z" fill="white"/>
</svg>
