<svg width="22" height="22" viewBox="0 0 22 22" fill="none" xmlns="http://www.w3.org/2000/svg">
<g clip-path="url(#clip0_391_28164)">
<path fill-rule="evenodd" clip-rule="evenodd" d="M4.58366 0.916748C3.6112 0.916748 2.67857 1.30306 1.99093 1.99069C1.3033 2.67832 0.916992 3.61095 0.916992 4.58341V17.4167C0.916992 18.3892 1.3033 19.3218 1.99093 20.0095C2.67857 20.6971 3.6112 21.0834 4.58366 21.0834H17.417C18.3895 21.0834 19.3221 20.6971 20.0097 20.0095C20.6973 19.3218 21.0837 18.3892 21.0837 17.4167V4.58341C21.0837 3.61095 20.6973 2.67832 20.0097 1.99069C19.3221 1.30306 18.3895 0.916748 17.417 0.916748H4.58366ZM12.5724 3.30283C12.6256 3.35603 12.6678 3.4192 12.6966 3.48872C12.7254 3.55824 12.7403 3.63275 12.7403 3.708C12.7403 3.78325 12.7254 3.85776 12.6966 3.92728C12.6678 3.9968 12.6256 4.05996 12.5724 4.11316L11.9051 4.7805C11.7966 4.88266 11.6526 4.93854 11.5035 4.93626C11.3545 4.93398 11.2123 4.87373 11.107 4.76829C11.0016 4.66286 10.9416 4.52053 10.9394 4.37152C10.9373 4.22251 10.9934 4.07854 11.0957 3.97016L11.7621 3.30283C11.8153 3.24961 11.8784 3.2074 11.948 3.1786C12.0175 3.1498 12.092 3.13497 12.1672 3.13497C12.2425 3.13497 12.317 3.1498 12.3865 3.1786C12.456 3.2074 12.5192 3.24961 12.5724 3.30283ZM10.267 5.59175C9.99199 5.46525 9.67849 5.32133 9.26966 5.32133C8.36216 5.32133 6.99908 6.22883 6.99908 8.04566C6.99908 9.8625 8.15041 12.3595 9.26966 12.3595C9.61066 12.3595 9.83799 12.2467 10.0644 12.1331C10.2917 12.0194 10.5182 11.9057 10.8592 11.9057C11.1992 11.9057 11.4834 12.0194 11.7667 12.1331C12.0508 12.2458 12.335 12.3595 12.6751 12.3595C13.4579 12.3595 14.2563 11.1376 14.6661 9.78183C14.2902 9.64525 13.5367 8.94033 13.5367 8.04566C13.5367 6.89067 14.0647 6.37275 14.3287 6.1995C13.8521 5.61375 13.1912 5.32133 12.6751 5.32133C12.2662 5.32133 11.8803 5.46525 11.543 5.59175C11.2817 5.68891 11.0498 5.77508 10.8592 5.77508C10.6685 5.77508 10.4797 5.68891 10.267 5.59175ZM5.83308 14.3496C5.83308 14.1728 5.90329 14.0033 6.02826 13.8784C6.15324 13.7534 6.32275 13.6832 6.49949 13.6832C6.67624 13.6832 6.84574 13.7534 6.97072 13.8784C7.0957 14.0033 7.16591 14.1728 7.16591 14.3496C7.16591 14.5263 7.0957 14.6958 6.97072 14.8208C6.84574 14.9458 6.67624 15.016 6.49949 15.016C6.32275 15.016 6.15324 14.9458 6.02826 14.8208C5.90329 14.6958 5.83308 14.5263 5.83308 14.3496ZM12.2589 15.6247C12.2589 14.9757 12.8492 14.0517 14.1656 14.0517C14.6789 14.0517 15.1372 14.3001 15.4489 14.5595C15.6102 14.6942 15.7532 14.8492 15.8614 15.0105C15.9586 15.1562 16.0722 15.3744 16.0722 15.6247H14.9264C14.9264 15.6632 14.9328 15.6861 14.9356 15.6925C14.9279 15.6764 14.9187 15.661 14.9081 15.6467C14.8539 15.5692 14.7891 15.4998 14.7156 15.4404C14.5277 15.2827 14.3196 15.1975 14.1656 15.1975C13.8035 15.1975 13.6202 15.3139 13.5294 15.4047C13.474 15.4584 13.433 15.5252 13.4102 15.599C13.4274 15.6118 13.4591 15.6302 13.5056 15.654C13.6871 15.7457 13.952 15.8144 14.3049 15.9024L14.3379 15.9116C14.6468 15.9877 15.0318 16.0839 15.3389 16.2379C15.6625 16.3992 16.0722 16.7164 16.0722 17.2921C16.0722 17.9411 15.4828 18.8642 14.1656 18.8642C12.8492 18.8642 12.2589 17.9411 12.2589 17.2921H13.4047L13.4057 17.2912C13.4094 17.3158 13.4165 17.3399 13.4267 17.3627C13.446 17.4085 13.479 17.4617 13.5294 17.5121C13.6211 17.6028 13.8035 17.7192 14.1656 17.7192C14.5286 17.7192 14.7119 17.6028 14.8027 17.5121C14.8578 17.4583 14.8984 17.3914 14.9209 17.3177C14.8906 17.2976 14.859 17.2792 14.8265 17.2627C14.645 17.1711 14.3801 17.1023 14.0272 17.0143L13.9942 17.0052C13.6852 16.9291 13.3002 16.8328 12.9932 16.6788C12.6696 16.5175 12.2589 16.2003 12.2589 15.6247ZM14.9429 17.3397C14.9417 17.3397 14.9386 17.3364 14.9337 17.3297C14.9411 17.3358 14.9441 17.3397 14.9429 17.3397ZM13.3892 15.577C13.3904 15.577 13.3931 15.5804 13.3974 15.5871C13.3907 15.581 13.3879 15.577 13.3892 15.577ZM8.73891 16.4588C8.73891 15.7099 9.27882 15.1984 9.83249 15.1984C10.3862 15.1984 10.9261 15.7099 10.9261 16.4588C10.9261 17.2068 10.3862 17.7192 9.83249 17.7192C9.27882 17.7192 8.73891 17.2068 8.73891 16.4588ZM9.83249 14.0526C8.54549 14.0526 7.59308 15.1819 7.59308 16.4579C7.59308 17.7339 8.54641 18.8642 9.83249 18.8642C11.1186 18.8642 12.0719 17.7348 12.0719 16.4579C12.0719 15.1819 11.1195 14.0526 9.83249 14.0526ZM5.92749 18.7917V15.7502H7.07333V18.7917H5.92749Z" fill="#FCFCFC"/>
</g>
<defs>
<clipPath id="clip0_391_28164">
<rect width="22" height="22" fill="white"/>
</clipPath>
</defs>
</svg>
