<svg width="93" height="80" viewBox="0 0 93 80" fill="none" xmlns="http://www.w3.org/2000/svg">
<g id="Group 4872" filter="url(#filter0_d_233_28813)">
<path id="Vector" d="M64.9015 19.361C61.4299 17.7559 57.7563 16.6254 53.9804 16C53.4501 16.9106 52.9768 17.8529 52.5632 18.8216C48.5409 18.2405 44.4555 18.2405 40.4333 18.8216C40.0197 17.8529 39.5463 16.9106 39.016 16C35.2448 16.6449 31.5737 17.7747 28.0949 19.361C21.1755 29.5685 19.2997 39.4855 20.2168 49.278C24.2725 52.265 28.8121 54.5386 33.6388 56C34.7238 54.5319 35.6857 52.9776 36.515 51.3527C34.9439 50.7746 33.4241 50.0667 31.9715 49.2365L33.097 48.4066C37.2937 50.3539 41.8679 51.363 46.4982 51.363C51.1285 51.363 55.7027 50.3539 59.8995 48.4066L61.0249 49.2365C59.5732 50.0801 58.0535 50.8018 56.4814 51.3942C57.3205 53.0003 58.2821 54.5401 59.3576 56C64.1877 54.547 68.7288 52.2728 72.7797 49.278C73.8634 37.9087 70.9039 28.0747 64.9015 19.361ZM37.7238 43.2614C35.0978 43.2614 32.9302 40.8963 32.9302 37.9917C32.9302 35.0871 35.0144 32.722 37.6821 32.722C40.3499 32.722 42.5174 35.0871 42.4757 37.9917C42.4341 40.8963 40.3499 43.2614 37.7238 43.2614ZM55.3143 43.2614C52.6882 43.2614 50.5207 40.8963 50.5207 37.9917C50.5207 35.0871 52.6048 32.722 55.3143 32.722C58.0237 32.722 60.1079 35.0871 60.0662 37.9917C60.0245 40.8963 57.982 43.2614 55.3143 43.2614Z" fill="white"/>
</g>
<defs>
<filter id="filter0_d_233_28813" x="0" y="0" width="93" height="80" filterUnits="userSpaceOnUse" color-interpolation-filters="sRGB">
<feFlood flood-opacity="0" result="BackgroundImageFix"/>
<feColorMatrix in="SourceAlpha" type="matrix" values="0 0 0 0 0 0 0 0 0 0 0 0 0 0 0 0 0 0 127 0" result="hardAlpha"/>
<feOffset dy="4"/>
<feGaussianBlur stdDeviation="10"/>
<feComposite in2="hardAlpha" operator="out"/>
<feColorMatrix type="matrix" values="0 0 0 0 0 0 0 0 0 0 0 0 0 0 0 0 0 0 0.55 0"/>
<feBlend mode="normal" in2="BackgroundImageFix" result="effect1_dropShadow_233_28813"/>
<feBlend mode="normal" in="SourceGraphic" in2="effect1_dropShadow_233_28813" result="shape"/>
</filter>
</defs>
</svg>
